<?xml version="1.0" encoding="UTF-8"?>
<!DOCTYPE svg PUBLIC "-//W3C//DTD SVG 1.1//EN" "http://www.w3.org/Graphics/SVG/1.1/DTD/svg11.dtd">
<!-- Creator: CorelDRAW -->
<svg xmlns="http://www.w3.org/2000/svg" xml:space="preserve" width="4860px" height="1080px" version="1.1" style="shape-rendering:geometricPrecision; text-rendering:geometricPrecision; image-rendering:optimizeQuality; fill-rule:evenodd; clip-rule:evenodd"
viewBox="0 0 21000 29700"
 xmlns:xlink="http://www.w3.org/1999/xlink">
 <defs>
  <style type="text/css">
   <![CDATA[
    .fil0 {fill:#0064D3}
    .fil1 {fill:#FEDD00}
   ]]>
  </style>
 </defs>
 <g id="Layer_x0020_1">
  <metadata id="CorelCorpID_0Corel-Layer"/>
  <g id="Tiket.com.cdr">
   <path class="fil0" d="M1372 15578c-45,-41 -105,-67 -170,-67l-87 0c-62,0 -155,-84 -155,-154l0 -376 0 -237 0 -465 205 0c138,0 251,-113 251,-251l0 0c0,-137 -113,-250 -251,-250l-205 0 0 -341c0,-156 -127,-283 -283,-283 -156,0 -283,127 -283,283l0 341 -144 0c-137,0 -250,113 -250,250l0 0c0,138 113,251 250,251l144 0c0,418 0,808 0,1226 -4,88 36,178 36,178 62,162 205,285 378,320 34,7 69,11 104,11l290 0c138,0 251,-114 251,-252 0,-50 -15,-96 -40,-136 -12,-17 -26,-34 -41,-48zm4887 -577l-1090 0c228,768 874,504 1131,390 94,-41 304,63 279,238 -25,175 -251,251 -251,251 0,0 -287,118 -635,104 -635,-25 -1087,-515 -1107,-1159 20,-644 508,-1160 1108,-1160 934,0 1460,1336 828,1336l-263 0zm0 -390c-48,-277 -276,-503 -545,-503 -269,0 -500,218 -545,503l1090 0zm1806 967c-45,-41 -104,-67 -170,-67l-87 0c-62,0 -155,-84 -155,-154l0 -376 0 -237 0 -465 205 0c138,0 251,-113 251,-251l0 0c0,-137 -113,-250 -251,-250l-205 0 0 -341c0,-156 -127,-283 -283,-283 -155,0 -283,127 -283,283l0 341 -143 0c-138,0 -251,113 -251,250l0 0c0,138 113,251 251,251l143 0c0,418 0,808 0,1226 -4,88 36,178 36,178 63,162 205,285 379,320 33,7 68,11 103,11l290 0c138,0 251,-114 251,-252 0,-50 -14,-96 -40,-136 -11,-17 -25,-34 -41,-48zm-5402 -1590l0 1703c0,156 128,283 284,283 155,0 283,-127 283,-283l0 -188 0 -96 253 -291 38 53 499 688c89,122 261,149 383,60 122,-88 150,-261 61,-383l-573 -789 513 -589c91,-105 80,-266 -25,-358 -105,-92 -266,-81 -358,25l-436 500 -355 408 0 -897 0 -653c0,-156 -128,-283 -283,-283 -156,0 -283,127 -284,282 0,0 0,1 0,1l0 807zm-691 -307l0 0c156,0 283,128 283,283l0 1682c0,155 -127,283 -283,283l0 0c-156,0 -283,-128 -283,-283l0 -1682c0,-155 127,-283 283,-283z"/>
   <path class="fil0" d="M13973 14817c0,-442 330,-801 737,-801 118,0 230,30 330,84 60,33 115,75 165,124 1,0 3,1 4,1 19,7 40,11 61,11 100,0 181,-81 181,-181 0,-33 -9,-64 -24,-91 -2,-2 -2,-4 -3,-6 -46,-43 -96,-83 -148,-118 -173,-115 -379,-181 -599,-181 -614,0 -1112,518 -1112,1158 0,640 498,1158 1112,1158 201,0 390,-56 553,-153 72,-43 139,-94 200,-152 0,-1 1,-2 1,-3 13,-25 20,-53 20,-82 0,-100 -81,-181 -181,-181 -27,0 -53,6 -76,17 -23,21 -47,41 -72,60 0,0 0,0 0,0 -2,3 -5,5 -9,6 -41,29 -84,54 -130,74 -85,37 -177,57 -273,57 -407,0 -737,-359 -737,-801zm4421 -785l0 -139c0,-107 -88,-194 -194,-194 -107,0 -195,87 -195,194l0 1847c0,107 88,195 195,195 106,0 194,-88 194,-195l0 -1426c259,-292 726,-513 894,0l0 1426c0,107 88,195 194,195 107,0 195,-88 195,-195l0 -1426c379,-380 729,-423 934,0l0 1426c0,107 88,195 195,195 107,0 194,-88 194,-195l0 -1556c-53,-223 -168,-368 -312,-446 -308,-166 -750,-21 -1011,343 -18,-55 -41,-104 -69,-148 -241,-382 -824,-327 -1214,99zm-1693 -373c614,0 1112,518 1112,1158 0,640 -498,1158 -1112,1158 -614,0 -1112,-518 -1112,-1158 0,-640 498,-1158 1112,-1158zm-5 357c383,0 694,359 694,801 0,442 -311,801 -694,801 -384,0 -695,-359 -695,-801 0,-442 311,-801 695,-801z"/>
   <path class="fil1" d="M10856 12559c1265,0 2291,1026 2291,2291 0,1265 -1026,2291 -2291,2291 -1265,0 -2291,-1026 -2291,-2291 0,-1265 1026,-2291 2291,-2291z"/>
  </g>
 </g>
</svg>
